<?xml version="1.0" encoding="utf-8"?>
<!-- Generator: Adobe Illustrator 22.1.0, SVG Export Plug-In . SVG Version: 6.00 Build 0)  -->
<svg version="1.1" xmlns="http://www.w3.org/2000/svg" xmlns:xlink="http://www.w3.org/1999/xlink" x="0px" y="0px"
	 viewBox="0 0 841.9 595.3" style="enable-background:new 0 0 841.9 595.3;" xml:space="preserve">
<style type="text/css">
	.st0{fill:#FFFFFF;}
	.st1{display:none;}
	.st2{fill:none;stroke:#000000;stroke-width:12;stroke-miterlimit:10;}
</style>
<g id="Calque_3">
	<rect class="st0" width="841.9" height="595.3"/>
</g>
<g id="Calque_1" class="st1">
	
		<image style="display:inline;overflow:visible;" width="243" height="217" xlink:href="shifumi_bg.jpg"  transform="matrix(2.6326 0 0 2.6326 74.6383 12)">
	</image>
</g>
<g id="Calque_2">
	<path class="st2" d="M154,42.3c0,0,55.8,31.2,57.8,38.2"/>
	<path class="st2" d="M205,86.3c0,0,69.5-69.5,121.9,21.3c5.8,10,8.5,21.5,7.8,33.1C332,184.9,312.2,296,179.5,261.3
		c0,0-73.9-27.8-39.4-96.9c1.9-3.9,4.2-7.9,6.9-12.1"/>
	<line class="st2" x1="80" y1="125.3" x2="140.1" y2="164.4"/>
	<path class="st2" d="M281,104.3c0,0,38,118.3-48,13"/>
	<path class="st2" d="M174,248.3c0,0-18-32,22-32c0,0-16-34,26-34c0,0-7-37.9,26-37.5"/>
	<line class="st2" x1="652" y1="17.3" x2="612" y2="51.3"/>
	<path class="st2" d="M625,60.9c0,0-38-61.6-96-26.6c0,0-60,35.6-19,98.3c0,0-111,41.7-81,86.7s122-33,122-33s-66.1,92-26.6,122
		s68.6-40,66.6-101c0,0,56,34,87-16s-26-97-26-97"/>
	<line class="st2" x1="714.4" y1="91.3" x2="677.9" y2="120.8"/>
	<path class="st2" d="M652,113.3c0,0-42-12.3-57.8,14.1c-6.2,10.3-2.9,23.7,7.2,30.3c7.9,5.3,20.1,9.5,37.6,6.6"/>
	<path class="st2" d="M539,110.4c0,0,40,38.9,60,14.9s-17-26-17-26s34,11,38.5-8S594,64.4,570,60.9"/>
	<line class="st2" x1="456" y1="579.3" x2="456" y2="533.3"/>
	<path class="st2" d="M409,466.3c0,0-13-60-95-42c0,0-39-50.3-85.6-31.4c-9.4,3.8-13.6,14.9-8.9,23.9c5.3,10.2,18.9,23.7,51.5,38.4
		c0,0,33.2,13.3,45.9,44.3c3.9,9.5,9.5,18.3,16.1,26.1c9.4,11.2,21.7,24,29,24.5"/>
	<line class="st2" x1="341" y1="579.3" x2="339.6" y2="533.3"/>
	<path class="st2" d="M307.1,416.6c0,0-68.1-104.6-33.1-119c35.4-14.5,87,85.6,87,85.6s-26-101,11-107s48.9,101,48.9,101
		c-5.1-80,42.1-99,54.1-88s-9,115-9,115c14.5-49.4,33.5-63.4,46.8-66.3c8.5-1.9,16.8,4.3,17.4,13.1c8.3,119.6-94.2,199.3-94.2,199.3
		"/>
</g>
</svg>
